<svg width="24" height="24" viewBox="0 0 24 24" fill="none" xmlns="http://www.w3.org/2000/svg">
<path d="M23.7029 10.584C23.7029 4.343 18.9719 1.53786e-07 12.1719 1.53786e-07C5.12587 -0.000999846 0.296875 4.875 0.296875 11.993C0.296875 19.34 4.99688 23.999 12.4169 23.999C14.0591 24.0236 15.6948 23.7873 17.2629 23.299V21.482C15.711 21.9966 14.0798 22.2303 12.4459 22.172C6.29087 22.172 2.32188 18.218 2.32188 12.08C2.32188 6.098 6.36287 1.813 11.9849 1.813C17.7379 1.813 21.6779 5.364 21.6779 10.555C21.6779 14.093 20.5129 16.379 18.6999 16.379C18.4828 16.4032 18.263 16.3787 18.0566 16.3072C17.8502 16.2357 17.6624 16.1191 17.5068 15.9658C17.3512 15.8125 17.2318 15.6264 17.1572 15.4211C17.0827 15.2158 17.0549 14.9964 17.0759 14.779V6.343H14.9049V8.093H14.6739C14.3717 7.46379 13.8922 6.93662 13.2943 6.57632C12.6965 6.21602 12.0064 6.03829 11.3089 6.065C8.36388 6.065 6.30888 8.509 6.30888 12.003C6.30888 15.657 8.32188 18.116 11.3089 18.116C12.0711 18.1543 12.8263 17.9549 13.4703 17.5454C14.1143 17.1359 14.6152 16.5365 14.9039 15.83H15.1359C15.2691 16.5531 15.6664 17.2007 16.2506 17.6471C16.8349 18.0934 17.5642 18.3066 18.2969 18.245C21.6039 18.245 23.7029 15.269 23.7029 10.582V10.584ZM8.60287 12.065C8.60287 9.547 9.73887 8.054 11.6659 8.054C13.6219 8.054 14.8719 9.606 14.8719 12.065C14.8719 14.524 13.6109 16.093 11.6359 16.093C9.75788 16.093 8.60687 14.566 8.60687 12.065H8.60287Z" fill="#6F7782"/>
</svg>
