<svg width="37" height="30" viewBox="0 0 37 30" fill="none" xmlns="http://www.w3.org/2000/svg">
<path d="M26.5114 0.382471C26.2092 0.447263 25.9397 0.616874 25.7505 0.861287C25.5613 1.1057 25.4647 1.40916 25.4778 1.71795V27.9039C25.4471 28.0912 25.4575 28.283 25.5083 28.4659C25.5591 28.6488 25.6491 28.8185 25.772 28.9632C25.8949 29.1079 26.0478 29.2241 26.2201 29.3038C26.3924 29.3836 26.58 29.4248 26.7698 29.4248C26.9597 29.4248 27.1472 29.3836 27.3195 29.3038C27.4919 29.2241 27.6448 29.1079 27.7677 28.9632C27.8906 28.8185 27.9806 28.6488 28.0314 28.4659C28.0822 28.283 28.0926 28.0912 28.0619 27.9039V1.71795C28.0663 1.53389 28.0318 1.35097 27.9606 1.18114C27.8895 1.01131 27.7834 0.858389 27.6492 0.73236C27.515 0.606331 27.3557 0.510028 27.1817 0.449738C27.0077 0.389448 26.823 0.366527 26.6396 0.382471C26.5969 0.380378 26.5541 0.380378 26.5114 0.382471ZM9.97295 1.76068C9.67074 1.82547 9.4012 1.99508 9.21203 2.23949C9.02285 2.48391 8.92624 2.78736 8.93929 3.09616V26.5256C8.9086 26.713 8.91901 26.9048 8.96981 27.0877C9.02062 27.2706 9.11059 27.4403 9.2335 27.585C9.35642 27.7297 9.50932 27.8459 9.68163 27.9256C9.85393 28.0054 10.0415 28.0466 10.2314 28.0466C10.4212 28.0466 10.6088 28.0054 10.7811 27.9256C10.9534 27.8459 11.1063 27.7297 11.2292 27.585C11.3521 27.4403 11.4421 27.2706 11.4929 27.0877C11.5437 26.9048 11.5541 26.713 11.5234 26.5256V3.09616C11.5278 2.91209 11.4933 2.72917 11.4222 2.55934C11.3511 2.38952 11.2449 2.23659 11.1107 2.11057C10.9765 1.98454 10.8172 1.88823 10.6432 1.82794C10.4693 1.76765 10.2845 1.74473 10.1011 1.76068C10.0584 1.75858 10.0156 1.75858 9.97295 1.76068ZM22.3768 5.89529C22.0746 5.96008 21.805 6.12969 21.6159 6.37411C21.4267 6.61852 21.3301 6.92198 21.3431 7.23077V22.391C21.3118 22.5786 21.3217 22.7708 21.3721 22.9542C21.4226 23.1376 21.5124 23.3078 21.6353 23.4529C21.7582 23.5981 21.9113 23.7147 22.0838 23.7947C22.2564 23.8747 22.4443 23.9162 22.6345 23.9162C22.8247 23.9162 23.0126 23.8747 23.1852 23.7947C23.3578 23.7147 23.5108 23.5981 23.6337 23.4529C23.7566 23.3078 23.8464 23.1376 23.8969 22.9542C23.9474 22.7708 23.9573 22.5786 23.9259 22.391V7.23077C23.9302 7.04696 23.8958 6.8643 23.8249 6.69467C23.7539 6.52505 23.648 6.37227 23.5141 6.24629C23.3802 6.1203 23.2212 6.02393 23.0476 5.96346C22.874 5.90298 22.6895 5.87976 22.5063 5.89529C22.4627 5.89311 22.419 5.89311 22.3754 5.89529H22.3768ZM5.83833 7.2735C5.53613 7.33829 5.26659 7.5079 5.07741 7.75231C4.88824 7.99673 4.79163 8.30018 4.80468 8.60898V21.0128C4.77332 21.2004 4.78321 21.3926 4.83366 21.576C4.88412 21.7594 4.97393 21.9296 5.09683 22.0747C5.21974 22.2199 5.3728 22.3365 5.54537 22.4165C5.71793 22.4965 5.90585 22.538 6.09605 22.538C6.28626 22.538 6.47418 22.4965 6.64674 22.4165C6.8193 22.3365 6.97236 22.2199 7.09527 22.0747C7.21818 21.9296 7.30799 21.7594 7.35844 21.576C7.4089 21.3926 7.41879 21.2004 7.38743 21.0128V8.60898C7.39177 8.42517 7.35734 8.2425 7.28639 8.07288C7.21544 7.90325 7.10956 7.75048 6.97564 7.62449C6.84173 7.49851 6.68278 7.40214 6.50914 7.34166C6.33551 7.28119 6.15109 7.25796 5.96788 7.2735C5.92426 7.27131 5.88057 7.27131 5.83695 7.2735H5.83833ZM14.1076 8.6517C13.8054 8.71649 13.5358 8.88611 13.3466 9.13052C13.1575 9.37493 13.0609 9.67839 13.0739 9.98718V19.6346C13.0425 19.8222 13.0524 20.0144 13.1029 20.1978C13.1534 20.3812 13.2432 20.5514 13.3661 20.6965C13.489 20.8417 13.642 20.9583 13.8146 21.0383C13.9872 21.1183 14.1751 21.1598 14.3653 21.1598C14.5555 21.1598 14.7434 21.1183 14.916 21.0383C15.0885 20.9583 15.2416 20.8417 15.3645 20.6965C15.4874 20.5514 15.5772 20.3812 15.6277 20.1978C15.6781 20.0144 15.688 19.8222 15.6567 19.6346V9.98718C15.661 9.80337 15.6266 9.62071 15.5556 9.45108C15.4847 9.28146 15.3788 9.12868 15.2449 9.0027C15.111 8.87671 14.952 8.78034 14.7784 8.71987C14.6047 8.65939 14.4203 8.63617 14.2371 8.6517C14.1935 8.64952 14.1498 8.64952 14.1062 8.6517H14.1076ZM30.646 8.6517C30.3438 8.71649 30.0743 8.88611 29.8851 9.13052C29.6959 9.37493 29.5993 9.67839 29.6124 9.98718V19.6346C29.5817 19.822 29.5921 20.0138 29.6429 20.1967C29.6937 20.3796 29.7837 20.5493 29.9066 20.694C30.0295 20.8387 30.1824 20.9549 30.3547 21.0346C30.527 21.1143 30.7146 21.1556 30.9044 21.1556C31.0943 21.1556 31.2819 21.1143 31.4542 21.0346C31.6265 20.9549 31.7794 20.8387 31.9023 20.694C32.0252 20.5493 32.1152 20.3796 32.166 20.1967C32.2168 20.0138 32.2272 19.822 32.1965 19.6346V9.98718C32.2009 9.80312 32.1664 9.6202 32.0953 9.45037C32.0242 9.28054 31.918 9.12762 31.7838 9.00159C31.6496 8.87556 31.4903 8.77926 31.3163 8.71897C31.1423 8.65868 30.9576 8.63576 30.7742 8.6517C30.7315 8.64961 30.6887 8.64961 30.646 8.6517ZM1.70371 11.4081C1.40151 11.4729 1.13197 11.6425 0.942796 11.8869C0.753622 12.1313 0.657011 12.4348 0.67006 12.7436V16.8782C0.639364 17.0656 0.649778 17.2573 0.700581 17.4403C0.751384 17.6232 0.841361 17.7929 0.964273 17.9376C1.08719 18.0823 1.24009 18.1985 1.4124 18.2782C1.5847 18.3579 1.77228 18.3992 1.96213 18.3992C2.15198 18.3992 2.33955 18.3579 2.51186 18.2782C2.68416 18.1985 2.83707 18.0823 2.95998 17.9376C3.08289 17.7929 3.17287 17.6232 3.22367 17.4403C3.27448 17.2573 3.28489 17.0656 3.25419 16.8782V12.7436C3.25857 12.5595 3.22407 12.3766 3.15296 12.2068C3.08184 12.037 2.97571 11.884 2.84149 11.758C2.70726 11.632 2.54797 11.5357 2.374 11.4754C2.20004 11.4151 2.01531 11.3922 1.83189 11.4081C1.78873 11.406 1.74549 11.406 1.70234 11.4081H1.70371ZM18.2422 11.4081C17.94 11.4729 17.6704 11.6425 17.4813 11.8869C17.2921 12.1313 17.1955 12.4348 17.2085 12.7436V16.8782C17.1772 17.0658 17.1871 17.258 17.2375 17.4414C17.288 17.6248 17.3778 17.795 17.5007 17.9401C17.6236 18.0853 17.7766 18.2019 17.9492 18.2819C18.1218 18.3619 18.3097 18.4034 18.4999 18.4034C18.6901 18.4034 18.878 18.3619 19.0506 18.2819C19.2232 18.2019 19.3762 18.0853 19.4991 17.9401C19.622 17.795 19.7118 17.6248 19.7623 17.4414C19.8127 17.258 19.8226 17.0658 19.7913 16.8782V12.7436C19.7956 12.5598 19.7612 12.3771 19.6902 12.2075C19.6193 12.0379 19.5134 11.8851 19.3795 11.7591C19.2456 11.6331 19.0866 11.5368 18.913 11.4763C18.7394 11.4158 18.5549 11.3926 18.3717 11.4081C18.3281 11.4059 18.2844 11.4059 18.2408 11.4081H18.2422ZM34.7806 11.4081C34.4784 11.4729 34.2089 11.6425 34.0197 11.8869C33.8305 12.1313 33.7339 12.4348 33.747 12.7436V16.8782C33.7163 17.0656 33.7267 17.2573 33.7775 17.4403C33.8283 17.6232 33.9183 17.7929 34.0412 17.9376C34.1641 18.0823 34.317 18.1985 34.4893 18.2782C34.6616 18.3579 34.8492 18.3992 35.0391 18.3992C35.2289 18.3992 35.4165 18.3579 35.5888 18.2782C35.7611 18.1985 35.914 18.0823 36.0369 17.9376C36.1598 17.7929 36.2498 17.6232 36.3006 17.4403C36.3514 17.2573 36.3618 17.0656 36.3311 16.8782V12.7436C36.3355 12.5595 36.301 12.3766 36.2299 12.2068C36.1588 12.037 36.0526 11.884 35.9184 11.758C35.7842 11.632 35.6249 11.5357 35.4509 11.4754C35.277 11.4151 35.0922 11.3922 34.9088 11.4081C34.8661 11.406 34.8233 11.406 34.7806 11.4081Z" fill="#8D8D8E"/>
</svg>