<svg width="38" height="38" viewBox="0 0 38 38" fill="none" xmlns="http://www.w3.org/2000/svg">
<path d="M9.50016 7.91669H28.5002C29.3381 7.9229 30.1399 8.25852 30.7324 8.85104C31.3249 9.44356 31.6606 10.2454 31.6668 11.0834V18.0184H6.3335V11.0834C6.33971 10.2454 6.67538 9.44356 7.2679 8.85104C7.86042 8.25852 8.66223 7.9229 9.50016 7.91669Z" stroke="#414141" stroke-width="2.5" stroke-miterlimit="10" stroke-linecap="round"/>
<path d="M6.3335 18.0184H31.6668V31.6667C31.6606 32.5046 31.3249 33.3065 30.7324 33.899C30.1399 34.4915 29.3381 34.8272 28.5002 34.8334H9.50016C8.66223 34.8272 7.86042 34.4915 7.2679 33.899C6.67538 33.3065 6.33971 32.5046 6.3335 31.6667V18.0184Z" stroke="#414141" stroke-width="2.5" stroke-miterlimit="10" stroke-linecap="round"/>
<path d="M25.3335 3.16669V12.6667" stroke="#414141" stroke-width="2.5" stroke-miterlimit="10" stroke-linecap="round"/>
<path d="M12.667 3.16669V12.6667" stroke="#414141" stroke-width="2.5" stroke-miterlimit="10" stroke-linecap="round"/>
<path d="M25.3335 24.5417H26.1252" stroke="#414141" stroke-width="2.5" stroke-miterlimit="10" stroke-linecap="round"/>
<path d="M19 24.5417H19.7917" stroke="#414141" stroke-width="2.5" stroke-miterlimit="10" stroke-linecap="round"/>
<path d="M12.667 24.5417H13.4587" stroke="#414141" stroke-width="2.5" stroke-miterlimit="10" stroke-linecap="round"/>
<path d="M19 29.2917H19.7917" stroke="#414141" stroke-width="2.5" stroke-miterlimit="10" stroke-linecap="round"/>
<path d="M12.667 29.2917H13.4587" stroke="#414141" stroke-width="2.5" stroke-miterlimit="10" stroke-linecap="round"/>
</svg>