<svg width="22" height="22" viewBox="0 0 22 22" fill="none" xmlns="http://www.w3.org/2000/svg">
<path d="M22.0001 11C22.0001 13.1756 21.355 15.3023 20.1463 17.1113C18.9376 18.9202 17.2196 20.3301 15.2096 21.1627C13.1997 21.9952 10.9879 22.2131 8.85413 21.7886C6.72034 21.3642 4.76033 20.3166 3.22195 18.7782C1.68357 17.2398 0.635926 15.2798 0.211489 13.146C-0.212949 11.0122 0.00488824 8.80047 0.837452 6.79048C1.67002 4.78049 3.07991 3.06253 4.88885 1.85383C6.69779 0.645139 8.82453 0 11.0001 0C13.9175 0 16.7154 1.15893 18.7783 3.22183C20.8412 5.28473 22.0001 8.08262 22.0001 11ZM16.5411 6.834C16.4429 6.73608 16.326 6.65897 16.1973 6.60729C16.0687 6.5556 15.9309 6.53041 15.7922 6.53321C15.6536 6.53601 15.517 6.56675 15.3905 6.62359C15.264 6.68042 15.1503 6.76219 15.0561 6.864L10.2811 12.948L7.40013 10.069C7.20454 9.88775 6.94634 9.78933 6.67974 9.7944C6.41314 9.79947 6.15887 9.90764 5.97032 10.0962C5.78177 10.2847 5.6736 10.539 5.66853 10.8056C5.66346 11.0722 5.76188 11.3304 5.94313 11.526L9.58113 15.166C9.67916 15.2639 9.79592 15.341 9.92443 15.3928C10.0529 15.4445 10.1906 15.4699 10.3291 15.4673C10.4676 15.4646 10.6042 15.4341 10.7306 15.3776C10.8571 15.321 10.9709 15.2395 11.0651 15.138L16.5541 8.277C16.7414 8.08242 16.8448 7.82216 16.8422 7.55214C16.8395 7.28212 16.7311 7.02391 16.5401 6.833L16.5411 6.834Z" fill="#25E8C8"/>
</svg>
