<svg width="36" height="35" viewBox="0 0 36 35" fill="none" xmlns="http://www.w3.org/2000/svg">
<path d="M18.0434 14.2916C18.9388 14.2954 19.8035 13.9661 20.4694 13.3676C21.1353 12.7691 21.5547 11.9443 21.6462 11.0536C21.7377 10.163 21.4946 9.27015 20.9642 8.54882C20.4338 7.82749 19.6541 7.32924 18.7767 7.15097C17.8993 6.9727 16.987 7.12719 16.2171 7.58436C15.4473 8.04153 14.875 8.76869 14.6117 9.62441C14.3483 10.4801 14.4127 11.4032 14.7923 12.2141C15.1718 13.025 15.8395 13.6657 16.6653 14.0117C17.1017 14.195 17.5701 14.2902 18.0434 14.2916V14.2916Z" stroke="#8D8D8E" stroke-width="1.5" stroke-linecap="round" stroke-linejoin="round"/>
<path d="M10.2559 14.2916C11.232 14.299 12.1804 13.9677 12.9395 13.3539C13.6986 12.7402 14.2212 11.8822 14.4184 10.9261C14.6156 9.97012 14.475 8.97532 14.0207 8.11135C13.5664 7.24738 12.8264 6.56778 11.927 6.18839C11.0276 5.80899 10.0245 5.75333 9.08869 6.03088C8.15284 6.30844 7.34221 6.90201 6.79509 7.71041C6.24797 8.5188 5.99817 9.49195 6.08835 10.4639C6.17854 11.4359 6.60312 12.3464 7.28963 13.0404C8.07476 13.8322 9.14083 14.2819 10.2559 14.2916V14.2916Z" stroke="#8D8D8E" stroke-width="1.5" stroke-linecap="round" stroke-linejoin="round"/>
<path d="M25.1309 19.075L28.0476 17.0042C28.4812 16.6976 28.9907 16.516 29.5205 16.4792C30.0517 16.4519 30.5805 16.5678 31.0517 16.8146C31.5222 17.0586 31.9121 17.4333 32.1746 17.8937C32.4461 18.3474 32.5874 18.8671 32.583 19.3958V24.0625C32.5862 24.5914 32.4442 25.1111 32.1725 25.5649C31.9007 26.0186 31.5095 26.3891 31.0416 26.6358C30.5737 26.8825 30.0471 26.996 29.5192 26.964C28.9912 26.932 28.4822 26.7556 28.0476 26.4542L25.0288 24.3104" stroke="#8D8D8E" stroke-width="1.5" stroke-linecap="round" stroke-linejoin="round"/>
<path d="M22.1123 14.2917H6.33317C5.56033 14.294 4.81979 14.602 4.27331 15.1485C3.72683 15.695 3.41881 16.4355 3.4165 17.2083V26.25C3.41958 27.0226 3.72788 27.7627 4.2742 28.309C4.82052 28.8554 5.56057 29.1636 6.33317 29.1667H22.1123C22.8859 29.1667 23.6277 28.8594 24.1747 28.3124C24.7217 27.7654 25.029 27.0236 25.029 26.25V17.2083C25.029 16.4348 24.7217 15.6929 24.1747 15.1459C23.6277 14.599 22.8859 14.2917 22.1123 14.2917Z" stroke="#8D8D8E" stroke-width="1.5" stroke-linecap="round" stroke-linejoin="round"/>
</svg>