<svg width="36" height="35" viewBox="0 0 36 35" fill="none" xmlns="http://www.w3.org/2000/svg">
<path d="M20.552 29.1667H9.24992C8.47767 29.1625 7.73827 28.8538 7.19219 28.3077C6.64612 27.7617 6.33746 27.0223 6.33325 26.25V5.83333C6.33746 5.06109 6.64612 4.32167 7.19219 3.77559C7.73827 3.22952 8.47767 2.92088 9.24992 2.91667H23.4687C24.2409 2.92088 24.9803 3.22952 25.5264 3.77559C26.0725 4.32167 26.3811 5.06109 26.3853 5.83333V23.3333L20.552 29.1667Z" stroke="#8D8D8E" stroke-width="1.5" stroke-linecap="round" stroke-linejoin="round"/>
<path d="M26.5749 5.83334C27.3458 5.84067 28.0835 6.14829 28.6312 6.69084C29.1711 7.2417 29.479 7.97875 29.4915 8.75V29.1667C29.479 29.9379 29.1711 30.675 28.6312 31.2258C28.0835 31.7684 27.3458 32.076 26.5749 32.0833H13.4499C12.6741 32.079 11.9307 31.7712 11.379 31.2258C10.8374 30.6773 10.5336 29.9376 10.5332 29.1667" stroke="#8D8D8E" stroke-width="1.5" stroke-linecap="round" stroke-linejoin="round"/>
<path d="M11.2625 8.67709H21.4708" stroke="#8D8D8E" stroke-width="1.5" stroke-linecap="round" stroke-linejoin="round"/>
<path d="M11.2625 13.1979H21.4708" stroke="#8D8D8E" stroke-width="1.5" stroke-linecap="round" stroke-linejoin="round"/>
<path d="M15.6375 17.5729H21.4708" stroke="#8D8D8E" stroke-width="1.5" stroke-linecap="round" stroke-linejoin="round"/>
<path d="M20.5518 29.1667V23.3333H26.3851" stroke="#8D8D8E" stroke-width="1.5" stroke-linecap="round" stroke-linejoin="round"/>
</svg>