<svg width="38" height="39" viewBox="0 0 38 39" fill="none" xmlns="http://www.w3.org/2000/svg">
<path d="M9.50016 8.41665H28.5002C29.339 8.41999 30.1425 8.75467 30.7356 9.34782C31.3288 9.94096 31.6635 10.7445 31.6668 11.5833V18.5183H6.3335V11.5833C6.33683 10.7445 6.67157 9.94096 7.26471 9.34782C7.85785 8.75467 8.66134 8.41999 9.50016 8.41665Z" stroke="#414141" stroke-width="2.5" stroke-miterlimit="10" stroke-linecap="round"/>
<path d="M6.3335 18.5183H31.6668V32.1667C31.6635 33.0055 31.3288 33.809 30.7356 34.4022C30.1425 34.9953 29.339 35.33 28.5002 35.3333H9.50016C8.66134 35.33 7.85785 34.9953 7.26471 34.4022C6.67157 33.809 6.33683 33.0055 6.3335 32.1667V18.5183Z" stroke="#414141" stroke-width="2.5" stroke-miterlimit="10" stroke-linecap="round"/>
<path d="M25.3335 3.66665V13.1667" stroke="#414141" stroke-width="2.5" stroke-miterlimit="10" stroke-linecap="round"/>
<path d="M12.667 3.66665V13.1667" stroke="#414141" stroke-width="2.5" stroke-miterlimit="10" stroke-linecap="round"/>
<path d="M17.417 26.625H25.3337" stroke="#414141" stroke-width="2.5" stroke-miterlimit="10" stroke-linecap="round"/>
<path d="M12.667 26.625H13.4587" stroke="#414141" stroke-width="2.5" stroke-miterlimit="10" stroke-linecap="round"/>
<path d="M22.167 23.4583L25.3337 26.625L22.167 29.7917" stroke="#414141" stroke-width="2.5" stroke-linecap="round" stroke-linejoin="round"/>
</svg>