<svg width="31" height="31" viewBox="0 0 31 31" fill="none" xmlns="http://www.w3.org/2000/svg">
<path d="M15.4998 30.0833C19.1201 30.0831 22.6109 28.7363 25.2931 26.3049C27.9754 23.8735 29.6574 20.5314 30.0121 16.9285C30.3667 13.3256 29.3685 9.71969 27.2118 6.812C25.055 3.90431 21.8938 1.90277 18.3431 1.19671C14.7923 0.490642 11.1059 1.13052 8.00081 2.99189C4.89572 4.85326 2.59396 7.80303 1.54325 11.2675C0.492541 14.7319 0.767995 18.4633 2.31604 21.7359C3.86408 25.0085 6.57403 27.5883 9.91879 28.9735C11.6882 29.7063 13.5847 30.0835 15.4998 30.0833Z" stroke="#8D8D8E" stroke-width="1.5" stroke-miterlimit="10"/>
<path d="M9.6665 19.9042C9.92171 20.2396 9.6665 24.2208 15.3832 24.2208C21.3332 24.2208 21.0984 20.2104 21.3332 19.9042H9.6665Z" stroke="#8D8D8E" stroke-width="1.5" stroke-linecap="round" stroke-linejoin="round"/>
<path d="M11.125 12.5833V9.66663" stroke="#8D8D8E" stroke-width="1.5" stroke-linecap="round" stroke-linejoin="round"/>
<path d="M19.875 12.5833V9.66663" stroke="#8D8D8E" stroke-width="1.5" stroke-linecap="round" stroke-linejoin="round"/>
</svg>