<svg width="24" height="24" viewBox="0 0 24 24" fill="none" xmlns="http://www.w3.org/2000/svg">
<path d="M12 22.5C9.9233 22.5 7.89323 21.8842 6.16651 20.7304C4.4398 19.5767 3.09399 17.9368 2.29926 16.0182C1.50454 14.0996 1.29661 11.9884 1.70175 9.95156C2.1069 7.91476 3.10693 6.04384 4.57538 4.57538C6.04383 3.10693 7.91475 2.1069 9.95155 1.70176C11.9884 1.29662 14.0996 1.50455 16.0182 2.29927C17.9368 3.09399 19.5767 4.4398 20.7304 6.16652C21.8842 7.89323 22.5 9.9233 22.5 12C22.5 14.7848 21.3938 17.4555 19.4246 19.4246C17.4555 21.3938 14.7848 22.5 12 22.5V22.5ZM12 24C14.3734 24 16.6935 23.2962 18.6668 21.9776C20.6402 20.6591 22.1783 18.7849 23.0866 16.5922C23.9948 14.3995 24.2324 11.9867 23.7694 9.65892C23.3064 7.33115 22.1635 5.19295 20.4853 3.51472C18.8071 1.83649 16.6689 0.693605 14.3411 0.230582C12.0133 -0.232441 9.60051 0.00519943 7.4078 0.913451C5.21509 1.8217 3.34094 3.35977 2.02236 5.33316C0.703788 7.30655 0 9.62663 0 12C0 15.1826 1.26428 18.2349 3.51472 20.4853C5.76516 22.7357 8.8174 24 12 24Z" fill="#6F7782"/>
<path d="M6.42703 14.351C6.59918 14.2517 6.80373 14.2247 6.99573 14.2761C7.18773 14.3275 7.35149 14.453 7.45103 14.625C7.91177 15.4242 8.57487 16.0879 9.37361 16.5494C10.1724 17.0109 11.0786 17.2538 12.001 17.2538C12.9235 17.2538 13.8297 17.0109 14.6284 16.5494C15.4272 16.0879 16.0903 15.4242 16.551 14.625C16.6003 14.5396 16.6659 14.4648 16.744 14.4048C16.8222 14.3448 16.9114 14.3008 17.0066 14.2752C17.1018 14.2497 17.201 14.2431 17.2987 14.256C17.3964 14.2688 17.4907 14.3008 17.576 14.35C17.6614 14.3992 17.7362 14.4648 17.7962 14.543C17.8562 14.6211 17.9003 14.7104 17.9258 14.8055C17.9513 14.9007 17.9579 15 17.9451 15.0977C17.9322 15.1954 17.9003 15.2896 17.851 15.375C17.2584 16.4012 16.406 17.2534 15.3797 17.8459C14.3533 18.4384 13.1891 18.7503 12.004 18.7503C10.8189 18.7503 9.65473 18.4384 8.62838 17.8459C7.60203 17.2534 6.74969 16.4012 6.15703 15.375C6.05769 15.2028 6.03076 14.9983 6.08213 14.8063C6.13351 14.6143 6.25899 14.4505 6.43103 14.351H6.42703ZM10.5 9.75C10.5 10.992 9.82803 12 9.00003 12C8.17203 12 7.50003 10.992 7.50003 9.75C7.50003 8.508 8.17203 7.5 9.00003 7.5C9.82803 7.5 10.5 8.508 10.5 9.75ZM16.5 9.75C16.5 10.992 15.828 12 15 12C14.172 12 13.5 10.992 13.5 9.75C13.5 8.508 14.172 7.5 15 7.5C15.828 7.5 16.5 8.508 16.5 9.75Z" fill="#6F7782"/>
</svg>
