<svg width="38" height="38" viewBox="0 0 38 38" fill="none" xmlns="http://www.w3.org/2000/svg">
<path d="M31.6665 9.5H19.9181C19.593 9.51404 19.2718 9.4254 18.9998 9.24666C18.7211 9.06648 18.5096 8.79933 18.3982 8.48666C18.1845 7.85848 17.7794 7.313 17.2398 6.92679C16.7003 6.54058 16.0533 6.33304 15.3898 6.33333H6.33317C5.49473 6.3379 4.69195 6.67299 4.09907 7.26587C3.50619 7.85875 3.17108 8.66155 3.1665 9.5V28.5C3.17108 29.3384 3.50619 30.1412 4.09907 30.7341C4.69195 31.327 5.49473 31.6621 6.33317 31.6667H31.6665C32.5049 31.6621 33.3077 31.327 33.9006 30.7341C34.4935 30.1412 34.8286 29.3384 34.8332 28.5V12.6667C34.8286 11.8282 34.4935 11.0254 33.9006 10.4325C33.3077 9.83966 32.5049 9.50457 31.6665 9.5V9.5Z" stroke="#414141" stroke-width="2.5" stroke-miterlimit="10"/>
<path d="M3.1665 26.885V17.4167C3.17108 16.5782 3.50619 15.7754 4.09907 15.1825C4.69195 14.5897 5.49473 14.2546 6.33317 14.25H31.6665C32.5049 14.2546 33.3077 14.5897 33.9006 15.1825C34.4935 15.7754 34.8286 16.5782 34.8332 17.4167V27.36" stroke="#414141" stroke-width="2.5" stroke-miterlimit="10"/>
</svg>