<svg width="36" height="35" viewBox="0 0 36 35" fill="none" xmlns="http://www.w3.org/2000/svg">
<path d="M17.9999 2.91668C21.6053 2.9216 25.08 4.26695 27.7486 6.69122C30.4172 9.11549 32.0891 12.4455 32.4392 16.0338C32.7893 19.6221 31.7928 23.2125 29.6431 26.1069C27.4934 29.0013 24.3442 30.9929 20.8078 31.6946C17.2714 32.3964 13.6003 31.7581 10.5083 29.9039C7.41633 28.0496 5.1243 25.1118 4.07774 21.6617C3.03119 18.2116 3.30476 14.4955 4.84554 11.236C6.38633 7.9764 9.08424 5.40623 12.4146 4.02502C14.1852 3.29127 16.0833 2.9146 17.9999 2.91668V2.91668Z" stroke="#8D8D8E" stroke-width="1.5" stroke-miterlimit="10"/>
<path d="M4.69971 23.5083L12.5893 15.6188C12.722 15.4814 12.8805 15.3719 13.0559 15.2965C13.2368 15.2234 13.4296 15.1843 13.6247 15.1813C14.0139 15.1854 14.3858 15.3426 14.6601 15.6188L18.4227 19.3813C18.5545 19.5195 18.7133 19.6292 18.8893 19.7035C19.0697 19.778 19.2628 19.8171 19.458 19.8188C19.8472 19.8146 20.2191 19.6575 20.4934 19.3813L21.3393 18.5354C21.472 18.3981 21.6305 18.2885 21.8059 18.2132C21.9868 18.1401 22.1796 18.101 22.3747 18.0979C22.7639 18.1021 23.1358 18.2592 23.4101 18.5354L30.2643 25.3896" stroke="#8D8D8E" stroke-width="1.5" stroke-linecap="round" stroke-linejoin="round"/>
<path d="M21.5581 13.4604C21.9893 13.4624 22.4113 13.3343 22.7686 13.0929C23.1302 12.8518 23.4138 12.5108 23.5852 12.1115C23.7078 11.8118 23.7626 11.4887 23.7456 11.1653C23.7286 10.842 23.6403 10.5264 23.4869 10.2412C23.3336 9.95605 23.1191 9.70832 22.8587 9.51581C22.5984 9.3233 22.2987 9.19076 21.9811 9.12773C21.5599 9.04291 21.123 9.0866 20.7269 9.25314C20.324 9.41746 19.9788 9.69761 19.7352 10.0581C19.4994 10.4196 19.3728 10.8414 19.3706 11.2729C19.3706 11.8531 19.6012 12.4095 20.0115 12.8197C20.4217 13.2299 20.9779 13.4604 21.5581 13.4604Z" stroke="#8D8D8E" stroke-width="1.5" stroke-linecap="round" stroke-linejoin="round"/>
</svg>