<svg width="22" height="21" viewBox="0 0 22 21" fill="none" xmlns="http://www.w3.org/2000/svg">
<path d="M2.30017 19.7323C2.12776 19.73 1.95763 19.6925 1.80017 19.6223C1.63966 19.5584 1.49342 19.4632 1.37011 19.3423C1.25278 19.2161 1.15803 19.0706 1.09009 18.9123C1.0303 18.7489 0.99987 18.5762 1.00012 18.4023V18.4023C0.990768 17.8713 1.08947 17.3439 1.29016 16.8523C1.58539 16.1048 2.09728 15.4627 2.76013 15.0083C3.42298 14.554 4.20652 14.3081 5.01013 14.3023H9.25012C10.3224 14.324 11.3443 14.7614 12.1001 15.5223C12.4742 15.9026 12.7668 16.3551 12.9601 16.8523C13.1592 17.3447 13.2611 17.8711 13.2601 18.4023C13.26 18.753 13.1238 19.09 12.8801 19.3423C12.7617 19.4645 12.6185 19.56 12.4601 19.6223C12.3026 19.6925 12.1325 19.73 11.9601 19.7323H2.30017Z" stroke="#8D8D8E" stroke-width="1.5" stroke-linecap="round" stroke-linejoin="round"/>
<path d="M7.13037 5.08228C6.25283 5.08333 5.41153 5.4324 4.79102 6.05292C4.1705 6.67343 3.82137 7.51473 3.82031 8.39227V8.53227C3.82282 8.96661 3.90765 9.39653 4.07031 9.79927C4.32167 10.4038 4.74655 10.9203 5.29114 11.2836C5.83573 11.647 6.4757 11.8409 7.13037 11.8409C7.78505 11.8409 8.42501 11.647 8.9696 11.2836C9.5142 10.9203 9.93895 10.4038 10.1903 9.79927C10.3578 9.39798 10.4428 8.9671 10.4403 8.53227V8.39227C10.4395 7.51465 10.0905 6.6732 9.46997 6.05263C8.8494 5.43205 8.00799 5.08307 7.13037 5.08228Z" stroke="#8D8D8E" stroke-width="1.5" stroke-linecap="square" stroke-linejoin="round"/>
<path d="M11.4702 3.72228C12.1541 3.63114 12.8466 3.81054 13.4003 4.22228C13.6768 4.42476 13.9102 4.68022 14.087 4.97379C14.2639 5.26736 14.3806 5.59318 14.4303 5.93227V5.93227C14.5096 6.3933 14.4612 6.86727 14.2902 7.30271C14.1192 7.73814 13.8321 8.11842 13.4602 8.40227" stroke="#8D8D8E" stroke-width="1.5" stroke-linecap="round" stroke-linejoin="round"/>
<path d="M15.2402 1.78227C15.8927 1.65923 16.5674 1.79356 17.1229 2.1571C17.6785 2.52064 18.0717 3.08515 18.2202 3.73226C18.3238 4.16762 18.3066 4.62302 18.1703 5.04927C18.0382 5.47619 17.7886 5.85737 17.4502 6.14927" stroke="#8D8D8E" stroke-width="1.5" stroke-linecap="round" stroke-linejoin="round"/>
<path d="M12.9399 11.7023H14.03C14.4806 11.7015 14.9264 11.7934 15.34 11.9723C15.7539 12.1492 16.128 12.4077 16.4399 12.7323C16.7604 13.0492 17.0094 13.4311 17.17 13.8523C17.3425 14.2671 17.4276 14.7131 17.42 15.1623C17.4219 15.3086 17.3945 15.4539 17.3396 15.5895C17.2847 15.7252 17.2032 15.8485 17.1 15.9523C16.9985 16.0564 16.8772 16.1392 16.7433 16.1959C16.6094 16.2526 16.4654 16.2819 16.3199 16.2823H15.72" stroke="#8D8D8E" stroke-width="1.5" stroke-linecap="round" stroke-linejoin="round"/>
<path d="M16.9902 8.59227H17.9602C18.774 8.60151 19.551 8.93299 20.1208 9.51407C20.6907 10.0952 21.0069 10.8784 21.0002 11.6923C21.0022 11.822 20.9784 11.9508 20.9303 12.0713C20.8782 12.1914 20.8035 12.3004 20.7102 12.3923C20.621 12.484 20.5161 12.5589 20.4003 12.6133C20.28 12.6643 20.1509 12.6912 20.0203 12.6923H19.4802" stroke="#8D8D8E" stroke-width="1.5" stroke-linecap="round" stroke-linejoin="round"/>
</svg>
