<svg id="icon-arrow-down" viewBox="0 0 21 20" fill="none" xmlns="http://www.w3.org/2000/svg">
<path d="M3.58413 18.58C3.55759 18.7013 3.56557 18.8275 3.60717 18.9445C3.64877 19.0614 3.72232 19.1644 3.81947 19.2416C3.91663 19.3189 4.0335 19.3674 4.15681 19.3816C4.28013 19.3958 4.40496 19.3751 4.51713 19.322L10.0091 16.5L15.4981 19.321C15.6102 19.3741 15.7349 19.3947 15.8581 19.3805C15.9813 19.3663 16.0981 19.3179 16.1952 19.2408C16.2923 19.1637 16.3659 19.0609 16.4076 18.9441C16.4493 18.8273 16.4574 18.7012 16.4311 18.58L15.3981 12.663L19.8051 8.46299C19.8968 8.37389 19.9623 8.26139 19.9946 8.13769C20.0268 8.014 20.0246 7.88383 19.9881 7.76132C19.9516 7.6388 19.8823 7.52861 19.7876 7.4427C19.693 7.35679 19.5766 7.29845 19.4511 7.27399L13.3211 6.40599L10.5891 0.991992C10.5371 0.882253 10.4549 0.789541 10.3522 0.724623C10.2496 0.659704 10.1306 0.625244 10.0091 0.625244C9.88766 0.625244 9.76868 0.659704 9.66602 0.724623C9.56335 0.789541 9.48121 0.882253 9.42913 0.991992L6.69813 6.40699L0.569131 7.27799C0.443863 7.30257 0.327701 7.36094 0.233214 7.44677C0.138726 7.53261 0.0695109 7.64265 0.033056 7.76499C-0.00339889 7.88733 -0.00570504 8.01731 0.0263871 8.14087C0.0584792 8.26443 0.123748 8.37686 0.215131 8.46599L4.62213 12.666L3.58413 18.582V18.58ZM9.72013 15.118L5.10913 17.488L5.97713 12.538C5.99799 12.4243 5.99066 12.3073 5.95579 12.1971C5.92093 12.0869 5.85958 11.987 5.77713 11.906L2.13813 8.43999L7.20713 7.71899C7.31212 7.70321 7.41173 7.66221 7.49741 7.59951C7.5831 7.53682 7.65231 7.45429 7.69913 7.35899L10.0101 2.78299L12.3191 7.35899C12.3659 7.45429 12.4352 7.53682 12.5208 7.59951C12.6065 7.66221 12.7061 7.70321 12.8111 7.71899L17.8801 8.43799L14.2441 11.903C14.1615 11.984 14.1 12.0841 14.0651 12.1945C14.0302 12.3049 14.023 12.4222 14.0441 12.536L14.9121 17.486L10.2981 15.118C10.2089 15.072 10.11 15.0479 10.0096 15.0479C9.90925 15.0479 9.81033 15.072 9.72113 15.118H9.72013Z" fill="#6F7782"/>
</svg>
