<svg width="18" height="23" viewBox="0 0 18 23" fill="none" xmlns="http://www.w3.org/2000/svg">
<path d="M7.86214 0.0587119C8.17156 -0.0150147 8.49314 -0.0193593 8.80439 0.0459822C9.11564 0.111324 9.40903 0.244773 9.66404 0.436992C9.91905 0.629211 10.1295 0.875556 10.2807 1.15879C10.4319 1.44202 10.5202 1.75531 10.5393 2.07671C10.5965 3.32328 10.798 4.55873 11.1395 5.75771C11.4841 6.61641 11.9783 7.40531 12.5986 8.08671C13.3868 9.0284 14.4242 9.72231 15.5887 10.0867C16.1104 10.2072 16.5788 10.4971 16.9226 10.9124C17.2664 11.3276 17.4667 11.8454 17.493 12.3867V18.0727C17.4823 18.6288 17.2689 19.1613 16.8938 19.5675C16.5187 19.9737 16.0084 20.2249 15.4614 20.2727C14.423 20.3527 13.4229 20.7045 12.5591 21.2937L12.492 21.3367C12.0646 21.6162 11.6081 21.8469 11.1307 22.0247C10.4668 22.2436 9.77136 22.3477 9.0734 22.3327H4.16421C3.61959 22.3517 3.08001 22.2215 2.60239 21.9557C2.12476 21.6899 1.7268 21.2985 1.45048 20.8227C1.22267 20.4279 1.09988 19.98 1.09411 19.5227C1.0929 19.2985 1.12928 19.0756 1.20171 18.8637C0.906719 18.4769 0.675372 18.0443 0.516619 17.5827C0.319345 17.0571 0.31724 16.4768 0.510696 15.9497C0.417333 15.7669 0.342581 15.5749 0.287596 15.3767C0.0761541 14.5792 0.0761541 13.7392 0.287596 12.9417C0.337933 12.7647 0.404014 12.5926 0.485029 12.4277C0.239334 12.0737 0.0812216 11.6651 0.0240127 11.2363C-0.0331963 10.8075 0.0121747 10.371 0.156303 9.96371C0.290099 9.55723 0.509844 9.18522 0.800206 8.87364C1.09057 8.56206 1.44455 8.31842 1.83745 8.15971C2.98283 7.82334 4.18287 7.72136 5.36757 7.85971C5.57553 7.87838 5.78284 7.90205 5.98948 7.93071C5.5028 5.81942 5.53262 3.61966 6.07635 1.52271C6.17099 1.18683 6.35247 0.882647 6.60204 0.641617C6.8516 0.400587 7.16019 0.231456 7.4959 0.151712L7.86214 0.0587119ZM4.16421 20.9157H9.07438C9.61661 20.9299 10.1573 20.8511 10.6736 20.6827C11.0552 20.5384 11.4195 20.3509 11.7595 20.1237L11.8158 20.0897C12.8581 19.3847 14.0603 18.9601 15.3093 18.8557C15.5109 18.8443 15.7013 18.7585 15.8445 18.6143C15.9877 18.4702 16.0737 18.2778 16.0862 18.0737V12.3867C16.0575 12.1589 15.9576 11.9463 15.8011 11.7801C15.6447 11.6139 15.4398 11.5027 15.2165 11.4627C13.7904 11.025 12.5179 10.1828 11.5492 9.03571C10.8052 8.21446 10.2166 7.26162 9.81279 6.22471C9.4283 4.90697 9.20127 3.54725 9.13658 2.17471C9.13135 2.06075 9.10178 1.9493 9.04992 1.84803C8.99806 1.74676 8.92514 1.65809 8.83618 1.58813C8.74723 1.51816 8.64435 1.46858 8.53465 1.44278C8.42494 1.41699 8.31102 1.4156 8.20074 1.43871L7.83351 1.53271C7.74028 1.55065 7.65356 1.59375 7.58249 1.65746C7.51143 1.72118 7.45866 1.80314 7.42976 1.89471C6.85683 4.10607 6.92745 6.43809 7.63312 8.60971C7.6729 8.73051 7.67993 8.85991 7.65346 8.9844C7.62699 9.10889 7.56801 9.2239 7.48267 9.3174C7.39733 9.4109 7.28876 9.47947 7.16832 9.51594C7.04787 9.55241 6.91997 9.55544 6.79797 9.52471V9.52471H6.77823L6.69728 9.50471C6.21679 9.39944 5.73059 9.32297 5.24121 9.27571C4.24852 9.15554 3.24218 9.23471 2.2797 9.50871C2.09099 9.59893 1.92261 9.72752 1.78505 9.88648C1.64749 10.0454 1.54369 10.2314 1.4801 10.4327C1.38942 10.6845 1.37656 10.9583 1.44322 11.2176C1.50987 11.477 1.65289 11.7097 1.85325 11.8847L2.34683 12.3847L1.85325 12.8847C1.74701 13.0145 1.67289 13.1681 1.63706 13.3327C1.49673 13.8745 1.49673 14.4439 1.63706 14.9857C1.67349 15.1501 1.74755 15.3036 1.85325 15.4337L2.34683 15.9337L1.85325 16.4337C1.78711 16.5007 1.70023 16.6857 1.84634 17.1277C1.99848 17.5563 2.24026 17.9466 2.55512 18.2717L3.04871 18.7717L2.55512 19.2717C2.50792 19.3428 2.48759 19.4287 2.49787 19.5137C2.50415 19.7221 2.56257 19.9255 2.66766 20.1047C2.821 20.3637 3.04148 20.5753 3.30514 20.7163C3.5688 20.8573 3.86557 20.9225 4.16322 20.9047L4.16421 20.9157Z" fill="#6F7782"/>
</svg>
