<svg width="23" height="31" viewBox="0 0 23 31" fill="none" xmlns="http://www.w3.org/2000/svg">
<path d="M21.7082 11.125V14.0417C21.7082 16.7491 20.6327 19.3456 18.7182 21.26C16.8038 23.1745 14.2073 24.25 11.4998 24.25C8.79242 24.25 6.19586 23.1745 4.28143 21.26C2.36699 19.3456 1.2915 16.7491 1.2915 14.0417V11.125" stroke="#8D8D8E" stroke-width="1.5" stroke-linecap="round" stroke-linejoin="round"/>
<path d="M11.5 24.25V30.0833" stroke="#8D8D8E" stroke-width="1.5" stroke-linecap="round" stroke-linejoin="round"/>
<path d="M7.125 30.0834H15.875" stroke="#8D8D8E" stroke-width="1.5" stroke-linecap="round" stroke-linejoin="round"/>
<path d="M17.3332 6.75002C17.3332 5.20292 16.7186 3.71919 15.6246 2.62523C14.5307 1.53127 13.0469 0.916687 11.4998 0.916687C9.95274 0.916687 8.46901 1.53127 7.37504 2.62523C6.28108 3.71919 5.6665 5.20292 5.6665 6.75002V14.0417C5.6665 15.5888 6.28108 17.0725 7.37504 18.1665C8.46901 19.2604 9.95274 19.875 11.4998 19.875C13.0469 19.875 14.5307 19.2604 15.6246 18.1665C16.7186 17.0725 17.3332 15.5888 17.3332 14.0417V6.75002Z" stroke="#8D8D8E" stroke-width="1.5" stroke-linecap="round" stroke-linejoin="round"/>
</svg>