<svg width="49" height="47" viewBox="0 0 49 47" fill="none" xmlns="http://www.w3.org/2000/svg">
<path d="M24.3164 13.7084C24.9161 13.7104 25.5088 13.5833 26.0513 13.3363C26.5939 13.0893 27.0728 12.7286 27.4531 12.2804C27.8334 11.8322 28.1057 11.3077 28.2501 10.7452C28.3945 10.1826 28.4074 9.59593 28.2879 9.02792C28.1273 8.26854 27.74 7.57136 27.1736 7.02261C26.6102 6.47442 25.8906 6.10081 25.1067 5.94943C24.3213 5.79544 23.5061 5.87181 22.7659 6.16876C22.0258 6.46572 21.3942 6.96971 20.9526 7.616C20.5052 8.25937 20.2655 9.01655 20.2637 9.79169C20.2695 10.8287 20.6984 11.8216 21.4572 12.5549C22.2159 13.2882 23.2433 13.7027 24.3164 13.7084Z" fill="#D1D1D1"/>
<path d="M24.3164 27.4167C24.9161 27.4187 25.5088 27.2916 26.0513 27.0446C26.5939 26.7976 27.0728 26.4369 27.4531 25.9887C27.8334 25.5405 28.1057 25.0161 28.2501 24.4535C28.3945 23.8909 28.4074 23.3043 28.2879 22.7363C28.1273 21.9769 27.74 21.2797 27.1736 20.731C26.6102 20.1828 25.8906 19.8091 25.1067 19.6578C24.3213 19.5038 23.5061 19.5802 22.7659 19.8771C22.0258 20.1741 21.3942 20.6781 20.9526 21.3243C20.5052 21.9677 20.2655 22.7249 20.2637 23.5C20.2695 24.5371 20.6984 25.53 21.4572 26.2633C22.2159 26.9966 23.2433 27.411 24.3164 27.4167Z" fill="#D1D1D1"/>
<path d="M24.3164 41.125C24.9161 41.127 25.5088 40.9999 26.0513 40.7529C26.5939 40.5059 27.0728 40.1452 27.4531 39.697C27.8334 39.2488 28.1057 38.7244 28.2501 38.1618C28.3945 37.5992 28.4074 37.0126 28.2879 36.4446C28.1273 35.6852 27.74 34.988 27.1736 34.4393C26.6102 33.8911 25.8906 33.5175 25.1067 33.3661C24.3213 33.2121 23.5061 33.2885 22.7659 33.5854C22.0258 33.8824 21.3942 34.3864 20.9526 35.0327C20.5052 35.676 20.2655 36.4332 20.2637 37.2084C20.2695 38.2454 20.6984 39.2383 21.4572 39.9716C22.2159 40.7049 23.2433 41.1194 24.3164 41.125Z" fill="#D1D1D1"/>
</svg>