<svg width="26" height="28" viewBox="0 0 26 28" fill="none" xmlns="http://www.w3.org/2000/svg">
<path d="M20.8376 16.4125C20.4359 15.6448 20.2258 14.7914 20.2251 13.925V9.72498C20.2251 5.17498 16.9376 1.5 12.8876 1.5C8.83757 1.5 5.53757 5.17498 5.53757 9.72498V13.9C5.55081 14.7815 5.33549 15.6514 4.91257 16.425C4.23805 17.5363 3.38492 18.5288 2.38754 19.3625C2.11224 19.6085 1.90918 19.9248 1.80008 20.2775C1.7001 20.6323 1.7001 21.0078 1.80008 21.3625C1.9046 21.7177 2.1084 22.0355 2.38754 22.2787C2.66174 22.5221 3.00027 22.6814 3.36258 22.7375H22.375C22.7547 22.7356 23.1249 22.6193 23.4375 22.4037C23.7558 22.1901 24.0001 21.8831 24.1367 21.5249C24.2732 21.1667 24.2953 20.775 24.2 20.4037C24.0993 20.0314 23.8905 19.6974 23.6 19.4438C22.5848 18.5426 21.6673 17.537 20.8626 16.4437L20.8376 16.4125Z" stroke="#8D8D8E" stroke-width="2" stroke-linecap="round" stroke-linejoin="round"/>
<path d="M10.4248 22.75H15.3374V24.0375C15.339 24.36 15.2768 24.6796 15.1546 24.978C15.0323 25.2764 14.8524 25.5476 14.6249 25.7762C14.1636 26.2368 13.5393 26.4968 12.8874 26.5V26.5C12.2353 26.4967 11.6108 26.2362 11.1497 25.7751C10.6887 25.314 10.4281 24.6896 10.4248 24.0375V22.75Z" stroke="#8D8D8E" stroke-width="2" stroke-linecap="round" stroke-linejoin="round"/>
</svg>