<svg width="38" height="38" viewBox="0 0 38 38" fill="none" xmlns="http://www.w3.org/2000/svg">
<path d="M9.50016 7.91667H28.5002C29.3381 7.92289 30.1399 8.2585 30.7324 8.85103C31.3249 9.44355 31.6606 10.2454 31.6668 11.0833V18.0183H6.3335V11.0833C6.33971 10.2454 6.67538 9.44355 7.2679 8.85103C7.86042 8.2585 8.66223 7.92289 9.50016 7.91667Z" stroke="#414141" stroke-width="2.5" stroke-miterlimit="10" stroke-linecap="round"/>
<path d="M6.3335 18.0183H31.6668V31.6667C31.6606 32.5046 31.3249 33.3065 30.7324 33.899C30.1399 34.4915 29.3381 34.8271 28.5002 34.8333H9.50016C8.66223 34.8271 7.86042 34.4915 7.2679 33.899C6.67538 33.3065 6.33971 32.5046 6.3335 31.6667V18.0183Z" stroke="#414141" stroke-width="2.5" stroke-miterlimit="10" stroke-linecap="round"/>
<path d="M25.3335 3.16667V12.6667" stroke="#414141" stroke-width="2.5" stroke-miterlimit="10" stroke-linecap="round"/>
<path d="M12.667 3.16667V12.6667" stroke="#414141" stroke-width="2.5" stroke-miterlimit="10" stroke-linecap="round"/>
<path d="M15.042 26.9167L17.0845 28.9592C17.3832 29.2562 17.7874 29.4229 18.2087 29.4229C18.6299 29.4229 19.0341 29.2562 19.3329 28.9592L24.542 23.75" stroke="#414141" stroke-width="2.5" stroke-linecap="round" stroke-linejoin="round"/>
</svg>