<svg width="28" height="28" viewBox="0 0 28 28" fill="none" xmlns="http://www.w3.org/2000/svg">
<path d="M11.5004 21.6162C13.8139 21.6161 16.0559 20.8138 17.8442 19.346C19.6325 17.8783 20.8567 15.8358 21.3079 13.5667C21.7592 11.2976 21.4097 8.94223 20.319 6.9019C19.2284 4.86157 17.464 3.26253 15.3266 2.37724C13.1891 1.49195 10.8107 1.37518 8.59684 2.04684C6.38293 2.71849 4.47044 4.13701 3.18516 6.06069C1.89987 7.98437 1.32137 10.2942 1.5482 12.5966C1.77502 14.899 2.79316 17.0515 4.42913 18.6874C5.35775 19.616 6.46017 20.3526 7.67345 20.8551C8.88674 21.3576 10.1871 21.6162 11.5004 21.6162Z" stroke="#8D8D8E" stroke-width="1.5" stroke-linecap="round" stroke-linejoin="round"/>
<path d="M26.5005 26.6161L21.5005 21.6161" stroke="#8D8D8E" stroke-width="1.5" stroke-linecap="round" stroke-linejoin="round"/>
</svg>