<svg width="36" height="35" viewBox="0 0 36 35" fill="none" xmlns="http://www.w3.org/2000/svg">
<path d="M32.5833 7.29168C32.5829 6.42682 32.3261 5.5815 31.8455 4.86252C31.3648 4.14353 30.6818 3.58315 29.8828 3.25215C29.0838 2.92116 28.2045 2.83441 27.3562 3.00286C26.5079 3.17131 25.7286 3.58738 25.1167 4.19855C24.505 4.81041 24.0884 5.5899 23.9197 6.43845C23.751 7.28701 23.8377 8.16652 24.1687 8.96584C24.4978 9.76627 25.0577 10.4506 25.7771 10.9316C26.4966 11.4126 27.3429 11.6685 28.2083 11.6667C29.3687 11.6667 30.4815 11.2057 31.302 10.3853C32.1224 9.5648 32.5833 8.452 32.5833 7.29168Z" stroke="#8D8D8E" stroke-width="1.5" stroke-miterlimit="10" stroke-linecap="square"/>
<path d="M32.5833 27.7083C32.5829 26.8435 32.3261 25.9982 31.8455 25.2792C31.3648 24.5602 30.6818 23.9998 29.8828 23.6688C29.0838 23.3378 28.2045 23.2511 27.3562 23.4195C26.5079 23.588 25.7286 24.004 25.1167 24.6152C24.505 25.2271 24.0884 26.0066 23.9197 26.8551C23.751 27.7037 23.8377 28.5832 24.1687 29.3825C24.4978 30.1829 25.0577 30.8673 25.7771 31.3483C26.4966 31.8293 27.3429 32.0852 28.2083 32.0833C29.3687 32.0833 30.4815 31.6224 31.302 30.8019C32.1224 29.9815 32.5833 28.8687 32.5833 27.7083Z" stroke="#8D8D8E" stroke-width="1.5" stroke-miterlimit="10" stroke-linecap="square"/>
<path d="M12.1666 17.5C12.1661 16.6352 11.9094 15.7898 11.4287 15.0708C10.948 14.3519 10.2651 13.7915 9.46605 13.4605C8.66704 13.1295 7.78772 13.0427 6.93942 13.2112C6.09113 13.3796 5.31187 13.7957 4.69994 14.4069C4.08827 15.0187 3.67166 15.7982 3.50294 16.6468C3.33421 17.4953 3.42091 18.3749 3.75199 19.1742C4.08101 19.9746 4.64096 20.6589 5.36039 21.1399C6.07982 21.621 6.92618 21.8769 7.7916 21.875C8.95192 21.875 10.0647 21.4141 10.8852 20.5936C11.7057 19.7731 12.1666 18.6603 12.1666 17.5Z" stroke="#8D8D8E" stroke-width="1.5" stroke-miterlimit="10" stroke-linecap="square"/>
<path d="M24.3874 9.40625L11.7 15.5458" stroke="#8D8D8E" stroke-width="1.5" stroke-miterlimit="10" stroke-linecap="square"/>
<path d="M11.5396 19.7313L24.1834 25.9875" stroke="#8D8D8E" stroke-width="1.5" stroke-miterlimit="10" stroke-linecap="square"/>
</svg>