<svg width="24" height="24" viewBox="0 0 24 24" fill="none" xmlns="http://www.w3.org/2000/svg">
<path d="M4.91003 22C4.41692 22.0124 3.93881 21.8295 3.57996 21.491C3.40178 21.3237 3.25876 21.1226 3.15918 20.8994C3.0596 20.6762 3.00549 20.4354 3 20.191V20.191C3.04294 18.6697 3.68677 17.2274 4.79065 16.1798C5.89453 15.1321 7.36857 14.5644 8.89001 14.601H15.11C16.6316 14.5639 18.1058 15.1314 19.2098 16.1792C20.3138 17.2269 20.9576 18.6696 21 20.191V20.191C20.9947 20.4354 20.9407 20.6763 20.8411 20.8995C20.7415 21.1227 20.5983 21.3238 20.42 21.491C20.0611 21.8295 19.5832 22.0131 19.09 22.002L4.91003 22Z" stroke="#8D8D8E" stroke-width="1.5" stroke-linecap="round" stroke-linejoin="round"/>
<path d="M12 11C10.8277 11.0089 9.6941 10.5811 8.81995 9.80002C8.40993 9.4367 8.07968 8.99236 7.84998 8.49502C7.62913 7.9952 7.51017 7.45636 7.5 6.91002V6.09001C7.51027 5.544 7.62923 5.00552 7.84998 4.50601C8.07957 4.00831 8.40982 3.56362 8.81995 3.20001C9.69881 2.42673 10.8294 2.00018 12 2.00018C13.1706 2.00018 14.3012 2.42673 15.1801 3.20001C15.5902 3.56362 15.9204 4.00831 16.15 4.50601C16.3708 5.00552 16.4897 5.544 16.5 6.09001V6.91002C16.4898 7.45636 16.3709 7.9952 16.15 8.49502C15.9203 8.99236 15.5901 9.4367 15.1801 9.80002C14.3059 10.5811 13.1723 11.0089 12 11Z" stroke="#8D8D8E" stroke-width="1.5" stroke-linecap="square" stroke-linejoin="round"/>
</svg>